<svg width="87" height="25" viewBox="0 0 87 25" fill="none" xmlns="http://www.w3.org/2000/svg">
<g clip-path="url(#clip0_90_11888)">
<path d="M8.81931 25C7.15886 25 5.66246 24.6513 4.32514 23.9588C2.98783 23.2663 1.93389 22.2599 1.15834 20.9446C0.387771 19.6294 0 18.0451 0 16.1967V15.7135C0 13.8651 0.387771 12.2808 1.15834 10.9656C1.92891 9.65029 2.98286 8.64391 4.32514 7.95141C5.66246 7.2589 7.15886 6.91016 8.81931 6.91016C10.4798 6.91016 11.8569 7.19912 13.0202 7.77704C14.1835 8.35495 15.1231 9.1471 15.839 10.1535C16.5549 11.1599 17.0122 12.2858 17.221 13.5313L13.3831 14.3285C13.2886 13.611 13.0699 12.9584 12.7269 12.3705C12.3789 11.7826 11.8917 11.3143 11.2553 10.9656C10.619 10.6168 9.84343 10.4474 8.92371 10.4474C8.004 10.4474 7.12903 10.6517 6.38331 11.0552C5.63263 11.4588 5.046 12.0666 4.61846 12.8737C4.19091 13.6808 3.97714 14.6523 3.97714 15.7832V16.132C3.97714 17.2629 4.19091 18.2294 4.61846 19.0265C5.046 19.8237 5.63263 20.4315 6.38331 20.845C7.134 21.2635 7.97914 21.4677 8.92371 21.4677C10.3306 21.4677 11.3945 21.1041 12.1203 20.3767C12.8462 19.6493 13.3035 18.7077 13.4875 17.5518L17.3254 18.4536C17.047 19.6543 16.5549 20.7503 15.839 21.7467C15.1231 22.7382 14.1835 23.5303 13.0202 24.1232C11.8569 24.7111 10.4549 25.005 8.81931 25.005V25Z" fill="black"/>
<path d="M28.0637 24.8704C26.3485 24.8704 24.8422 24.5068 23.5347 23.7794C22.2272 23.052 21.2081 22.0207 20.4823 20.6905C19.7515 19.3603 19.3885 17.8059 19.3885 16.0273V15.6088C19.3885 13.8053 19.7465 12.2459 20.4624 10.9256C21.1783 9.6054 22.1875 8.58408 23.48 7.8567C24.7776 7.12932 26.269 6.76562 27.9593 6.76562C29.6496 6.76562 31.0814 7.12932 32.3342 7.8567C33.582 8.58408 34.5564 9.61038 35.2474 10.9256C35.9434 12.2459 36.2864 13.7804 36.2864 15.539V16.9589H23.4104C23.4552 18.2991 23.9324 19.3752 24.8323 20.1823C25.7371 20.9894 26.8457 21.3979 28.1631 21.3979C29.4806 21.3979 30.4201 21.114 31.0416 20.546C31.668 19.9781 32.1403 19.3404 32.4634 18.6229L35.7595 20.3218C35.4363 20.9446 34.969 21.6122 34.3525 22.3146C33.7411 23.0221 32.9257 23.6199 31.9066 24.1182C30.8875 24.6164 29.6048 24.8655 28.0538 24.8655L28.0637 24.8704ZM23.654 13.9747H32.4087C32.3143 12.8437 31.8818 11.942 31.1112 11.2694C30.3356 10.5968 29.3414 10.263 28.1184 10.263C26.8954 10.263 25.8365 10.5968 25.0709 11.2694C24.3103 11.942 23.838 12.8437 23.654 13.9747Z" fill="black"/>
<path d="M38.7772 24.4371V7.49805H42.7543V9.49087H43.331C43.5796 8.79338 43.9972 8.28521 44.5838 7.97134C45.1704 7.65747 45.8714 7.49805 46.6867 7.49805H48.72V10.9855H46.5923C45.4488 10.9855 44.5242 11.2894 43.8132 11.8922C43.1023 12.4951 42.7494 13.4217 42.7494 14.6772V24.442H38.7722L38.7772 24.4371Z" fill="black"/>
<path d="M55.8689 24.437C54.7503 24.437 53.8605 24.0882 53.1993 23.3908C52.5381 22.6933 52.205 21.7467 52.205 20.546V10.4872H51.2107V7.49797H52.205V2.0177H56.1821V7.49797H61.1536V10.4872H56.1821V19.9183C56.1821 20.6058 56.5102 20.9495 57.1615 20.9495H60.6564V24.437H55.8739H55.8689Z" fill="black"/>
<path d="M65.593 5.20128C64.8771 5.20128 64.2607 4.96712 63.7436 4.48884C63.2266 4.01554 62.9631 3.38282 62.9631 2.60064C62.9631 1.81845 63.2216 1.18573 63.7436 0.712435C64.2607 0.239139 64.8821 0 65.593 0C66.3536 0 66.985 0.239139 67.4772 0.712435C67.9743 1.18573 68.2229 1.81845 68.2229 2.60064C68.2229 3.38282 67.9743 4.01554 67.4772 4.48884C66.98 4.96214 66.3536 5.20128 65.593 5.20128ZM63.6343 24.437V7.49801H67.6114V24.437H63.6343Z" fill="black"/>
<path d="M78.7723 24.8704C77.0572 24.8704 75.5508 24.5068 74.2433 23.7794C72.9359 23.052 71.9167 22.0207 71.1909 20.6905C70.4601 19.3603 70.0972 17.8059 70.0972 16.0273V15.6088C70.0972 13.8053 70.4551 12.2459 71.171 10.9256C71.8869 9.6054 72.8961 8.58408 74.1887 7.8567C75.4862 7.12932 76.9776 6.76562 78.6679 6.76562C80.3582 6.76562 81.79 7.12932 83.0428 7.8567C84.2906 8.58408 85.265 9.61038 85.956 10.9256C86.652 12.2459 86.9951 13.7804 86.9951 15.539V16.9589H74.1191C74.1638 18.2991 74.6411 19.3752 75.5409 20.1823C76.4457 20.9894 77.5543 21.3979 78.8717 21.3979C80.1892 21.3979 81.1288 21.114 81.7502 20.546C82.3766 19.9781 82.8489 19.3404 83.172 18.6229L86.4681 20.3218C86.1449 20.9446 85.6776 21.6122 85.0612 22.3146C84.4497 23.0221 83.6344 23.6199 82.6152 24.1182C81.5961 24.6164 80.3134 24.8655 78.7624 24.8655L78.7723 24.8704ZM74.298 13.9747H83.0527C82.9583 12.8437 82.5257 11.942 81.7552 11.2694C80.9796 10.5968 79.9853 10.263 78.7624 10.263C77.5394 10.263 76.4805 10.5968 75.7149 11.2694C74.9543 11.942 74.482 12.8437 74.298 13.9747Z" fill="black"/>
</g>
<defs>
<clipPath id="clip0_90_11888">
<rect width="87" height="25" fill="white"/>
</clipPath>
</defs>
</svg>
