<svg width="50" height="14" viewBox="0 0 50 14" fill="none" xmlns="http://www.w3.org/2000/svg">
<g clip-path="url(#clip0_18_4687)">
<path d="M5.16994 13.8396C4.19657 13.8396 3.31937 13.6443 2.53543 13.2565C1.75149 12.8687 1.13366 12.3051 0.679029 11.5686C0.227314 10.832 0 9.94484 0 8.90977V8.63914C0 7.60407 0.227314 6.71686 0.679029 5.98031C1.13074 5.24377 1.74857 4.68019 2.53543 4.29239C3.31937 3.90459 4.19657 3.70929 5.16994 3.70929C6.14331 3.70929 6.95057 3.87111 7.63251 4.19474C8.31446 4.51838 8.86526 4.96198 9.28491 5.52555C9.70457 6.08912 9.97269 6.71965 10.0951 7.41714L7.84526 7.86353C7.78989 7.46178 7.66166 7.0963 7.46057 6.76708C7.25657 6.43787 6.97097 6.17561 6.59794 5.98031C6.22491 5.78502 5.77029 5.69016 5.23114 5.69016C4.692 5.69016 4.17909 5.80455 3.74194 6.03053C3.30189 6.25652 2.958 6.59689 2.70737 7.04887C2.45674 7.50084 2.33143 8.04488 2.33143 8.6782V8.8735C2.33143 9.50682 2.45674 10.0481 2.70737 10.4945C2.958 10.9409 3.30189 11.2812 3.74194 11.5128C4.182 11.7472 4.67743 11.8615 5.23114 11.8615C6.05589 11.8615 6.67954 11.6579 7.10503 11.2505C7.53051 10.8432 7.79863 10.3159 7.90646 9.66864L10.1563 10.1736C9.99308 10.846 9.70457 11.4598 9.28491 12.0178C8.86526 12.573 8.31446 13.0166 7.63251 13.3486C6.95057 13.6778 6.12874 13.8424 5.16994 13.8424V13.8396Z" fill="white"/>
<path d="M16.2417 13.8424C15.2362 13.8424 14.3532 13.6387 13.5868 13.2314C12.8203 12.824 12.2229 12.2465 11.7974 11.5016C11.369 10.7567 11.1562 9.88622 11.1562 8.8902V8.65585C11.1562 7.64588 11.3661 6.77263 11.7857 6.03329C12.2054 5.29395 12.797 4.72201 13.5547 4.31467C14.3153 3.90734 15.1896 3.70367 16.1805 3.70367C17.1713 3.70367 18.0107 3.90734 18.745 4.31467C19.4765 4.72201 20.0477 5.29674 20.4528 6.03329C20.8608 6.77263 21.0619 7.63193 21.0619 8.61679V9.41192H13.5139C13.5401 10.1624 13.8199 10.7651 14.3474 11.217C14.8778 11.669 15.5277 11.8978 16.3 11.8978C17.0723 11.8978 17.623 11.7387 17.9873 11.4207C18.3545 11.1026 18.6314 10.7455 18.8208 10.3438L20.753 11.2951C20.5636 11.6439 20.2896 12.0177 19.9282 12.4111C19.5698 12.8073 19.0918 13.1421 18.4944 13.4211C17.897 13.7001 17.1451 13.8396 16.2358 13.8396L16.2417 13.8424ZM13.6567 7.74074H18.7888C18.7334 7.10742 18.4799 6.60244 18.0281 6.22579C17.5735 5.84915 16.9907 5.66222 16.2737 5.66222C15.5568 5.66222 14.9361 5.84915 14.4873 6.22579C14.0414 6.60244 13.7645 7.10742 13.6567 7.74074Z" fill="white"/>
<path d="M22.0648 13.8396V4.35376H24.3962V5.46974H24.7343C24.88 5.07915 25.1248 4.79457 25.4687 4.61881C25.8126 4.44304 26.2235 4.35376 26.7014 4.35376H27.8934V6.30673H26.6461C25.9758 6.30673 25.4337 6.47692 25.017 6.8145C24.6002 7.15209 24.3933 7.67102 24.3933 8.37409V13.8424H22.0619L22.0648 13.8396Z" fill="white"/>
<path d="M31.6241 13.8424C30.9684 13.8424 30.4467 13.6471 30.0591 13.2565C29.6715 12.8659 29.4763 12.3358 29.4763 11.6634V6.03052H28.8934V4.35655H29.4763V1.2876H31.8077V4.35655H34.722V6.03052H31.8077V11.3119C31.8077 11.6969 32.0001 11.8894 32.3818 11.8894H34.4306V13.8424H31.627H31.6241Z" fill="white"/>
<path d="M37.2637 3.07037C36.844 3.07037 36.4827 2.93924 36.1796 2.6714C35.8765 2.40636 35.722 2.05203 35.722 1.61401C35.722 1.17599 35.8736 0.821663 36.1796 0.556617C36.4827 0.291572 36.847 0.157654 37.2637 0.157654C37.7096 0.157654 38.0797 0.291572 38.3682 0.556617C38.6596 0.821663 38.8054 1.17599 38.8054 1.61401C38.8054 2.05203 38.6596 2.40636 38.3682 2.6714C38.0768 2.93645 37.7096 3.07037 37.2637 3.07037ZM36.1155 13.8424V4.35654H38.4469V13.8424H36.1155Z" fill="white"/>
<path d="M44.8907 13.8424C43.8853 13.8424 43.0023 13.6387 42.2358 13.2314C41.4694 12.824 40.8719 12.2465 40.4464 11.5016C40.018 10.7567 39.8053 9.88622 39.8053 8.8902V8.65585C39.8053 7.64588 40.0151 6.77263 40.4348 6.03329C40.8544 5.29395 41.446 4.72201 42.2038 4.31467C42.9644 3.90734 43.8387 3.70367 44.8295 3.70367C45.8204 3.70367 46.6597 3.90734 47.3941 4.31467C48.1256 4.72201 48.6968 5.29674 49.1019 6.03329C49.5099 6.77263 49.711 7.63193 49.711 8.61679V9.41192H42.163C42.1892 10.1624 42.469 10.7651 42.9964 11.217C43.5268 11.669 44.1767 11.8978 44.949 11.8978C45.7213 11.8978 46.2721 11.7387 46.6364 11.4207C47.0036 11.1026 47.2804 10.7455 47.4699 10.3438L49.402 11.2951C49.2126 11.6439 48.9387 12.0177 48.5773 12.4111C48.2188 12.8073 47.7409 13.1421 47.1435 13.4211C46.546 13.7001 45.7942 13.8396 44.8849 13.8396L44.8907 13.8424ZM42.2679 7.74074H47.3999C47.3446 7.10742 47.091 6.60244 46.6393 6.22579C46.1847 5.84915 45.6018 5.66222 44.8849 5.66222C44.168 5.66222 43.5472 5.84915 43.0984 6.22579C42.6526 6.60244 42.3757 7.10742 42.2679 7.74074Z" fill="white"/>
</g>
<defs>
<clipPath id="clip0_18_4687">
<rect width="49.711" height="13.6847" fill="white" transform="translate(0 0.157654)"/>
</clipPath>
</defs>
</svg>
